<svg xmlns="http://www.w3.org/2000/svg" viewBox="0 0 277.83 153.68"><defs><style>.cls-1{font-size:44.81px;font-family:Bazgroy-Bold, Bazgroły;font-weight:700;}</style></defs><g id="Layer_2" data-name="Layer 2"><g id="Layer_1-2" data-name="Layer 1"><path d="M66.74,129.34a2.68,2.68,0,0,1-.84,1,1.45,1.45,0,0,1-1.14.29c-1.79-.14-4.92-.29-9.41-.57s-10.78.67-18.88,2.51c-4.39.94-9.33,2.31-14.83,4s-11.75,3.79-18.58,6.27a1.52,1.52,0,0,1-.46.1H2.14a5.85,5.85,0,0,1-.76-.43,6.49,6.49,0,0,1-.77-1.13A5.43,5.43,0,0,1,0,139.72v-.36a2.74,2.74,0,0,1,.23-1.06,2.25,2.25,0,0,1,1-.9c1-.43,1.91-.89,2.83-1.39s2.17-1.12,3.9-1.91c.92-.39,2-.84,3.37-1.33s2.82-1.15,4.66-1.83a2.76,2.76,0,0,1-1-.71,4.88,4.88,0,0,1-1-1.42,1.88,1.88,0,0,1-.08-.52,1,1,0,0,1,0-.53c.16-1.19.85-4.37,2.07-9.57s3.95-13.34,8-24.35Q27.3,85,32,73.18t11.63-27a2,2,0,0,1,.45-.68,1.43,1.43,0,0,1,.62-.45,34.93,34.93,0,0,1,3.44-.85l.3-.06a8.08,8.08,0,0,1,4.36.25,1.36,1.36,0,0,1,.92.95,2,2,0,0,1-.16,1.51c-1.07,2.18-2.9,6-5.5,11.31S42.71,69.52,39.6,76.3q-2.45,5.45-5,11.14T29.74,99q-3.6,8.69-6.34,16.61a87.82,87.82,0,0,0-3.75,13.73.31.31,0,0,0-.08.18.32.32,0,0,1-.07.19l9.4-3.44q4.74-1.68,9.56-3.18a123.45,123.45,0,0,1,16.66-4.26c5.25-1,9.48-.85,12.69.48a2.41,2.41,0,0,1,1.61,2.45,5.3,5.3,0,0,1-.31,1.64A40,40,0,0,1,66.74,129.34Z"/><path d="M71.94,79.17l.08,0,.23-.06a.16.16,0,0,1,.15,0v.17A27.1,27.1,0,0,1,69,83.2C67.07,85,64.3,86,60.63,86.2Q56.8,94.27,52,103.71a77.78,77.78,0,0,1-11.32,16.44,2.94,2.94,0,0,1-.69.46l-.3,0a1,1,0,0,1-.46,0,10,10,0,0,1-5.81-3.28q-2.07-2.41-2.91-3.62a1.8,1.8,0,0,1-.3-.75v-.26a1.73,1.73,0,0,1,.08-.54,62.69,62.69,0,0,1,8-18.48,112.56,112.56,0,0,1,9.79-13.29q2.44-2.73,4.36-4.59c1.22-1.17,2.11-2,2.67-2.54a1.12,1.12,0,0,1,.54-.28.92.92,0,0,1,.23-.14,1.24,1.24,0,0,1,.38,0c2.34,0,3.95.46,4.82,1.31a14.13,14.13,0,0,1,2.37,2.59q.3.45-.39,3.12a20.5,20.5,0,0,1-1.22,3.76,13.54,13.54,0,0,0,4.05-.6,12.51,12.51,0,0,0,5.35-3.56c.11-.08.23-.17.39-.27ZM56.5,86.23a.31.31,0,0,0,.08-.19c0-.05,0-.08-.08-.07s0-.16-.15-.14a3.74,3.74,0,0,1-1.07-.56,3.19,3.19,0,0,1-.85-.69.17.17,0,0,0-.15-.06l-.15,0a86.84,86.84,0,0,0-8.26,12.58A53.89,53.89,0,0,0,40.29,112v.09a.28.28,0,0,0,.23.31.28.28,0,0,0,.23,0,.27.27,0,0,0,.15-.12A78.77,78.77,0,0,0,50.84,98.1C53.34,93.37,55.22,89.4,56.5,86.23Zm1.38-5.77c-.06,0-.08.05-.08.11v.08L58,81a3.85,3.85,0,0,0,.23.38h.08l.07,0a.47.47,0,0,1,.08-.28v-.17a.34.34,0,0,0,.08-.19.42.42,0,0,0-.16-.32.53.53,0,0,0-.23,0A.33.33,0,0,0,57.88,80.46Z"/><path d="M52.22,113a2.83,2.83,0,0,1-.16-.92v-.18a3.43,3.43,0,0,1,.39-1.21c3.11-5.92,5.78-11,8-15.22s4.06-7.85,5.59-10.76c1.07-2.05,2-3.8,2.75-5.26s1.4-2.68,1.91-3.67c1.22-2.33,1.94-3.69,2.14-4.09l.31-.59a14.34,14.34,0,0,0,.76-1.67A2.25,2.25,0,0,0,74,68.35l2.44.41q2.37.33,3.37,3.95a2.32,2.32,0,0,1-.16,1.42q-.3.78-.45,1.08-3.6,7-6.2,12t-4.35,8.46c-.82,1.59-1.53,3-2.15,4.08s-1.09,2.09-1.45,2.87q-1.45,2.7-1.68,3.18l-.23.4c0,.3,0,.59-.08.89,0,.53.13.84.54.91a2.72,2.72,0,0,0,1.22-.55A14.79,14.79,0,0,0,67.2,105a53.54,53.54,0,0,0,4.28-6.19q2.76-4.42,6-9.95L81,83.11c1.18-2,2.32-3.92,3.44-5.78q3.13-5.1,5.74-9c1.73-2.56,3-4.12,3.9-4.66a4.83,4.83,0,0,1,2-.75,3.58,3.58,0,0,1,1.68.19,5,5,0,0,1,2.75,2.27l.92,1.7c-1.1,1.19-2.19,2.38-3.29,3.56a84.87,84.87,0,0,0-6.8,8.55q-1.46,2.07-4.21,6.21c-1.89,2.78-4,5.78-6.27,9q-1.75,2.55-3.59,5.12l-3.67,5c-2.25,2.9-4.33,5.42-6.27,7.58s-3.47,3.37-4.59,3.81c-.61.2-1.22.38-1.83.52a6.93,6.93,0,0,1-5.28-.55C53.7,114.73,52.57,113.77,52.22,113Z"/><path d="M123.7,72.05q-1.31,1.44-4.2,5T113.15,85q-3.36,4.25-6.88,8.62c-2.35,2.92-4.43,5.49-6.27,7.72l-2.6,3.13c-.71.9-1.3,1.6-1.76,2.08a2.3,2.3,0,0,1-.69.56l-.22.07a2.21,2.21,0,0,1-.54.07A11.07,11.07,0,0,1,88.07,105,22,22,0,0,1,84.86,102a1.46,1.46,0,0,1-.3-.69v-.26a2,2,0,0,1,.07-.53,66.4,66.4,0,0,1,3.83-11,85.6,85.6,0,0,1,5-9.71,87,87,0,0,1,9.78-13.94c3.21-3.67,5.33-6,6.35-7a1.31,1.31,0,0,1,.53-.34.77.77,0,0,1,.23-.15.54.54,0,0,1,.31,0,10.6,10.6,0,0,1,6.19,1,21,21,0,0,1,3.9,2.42,1.07,1.07,0,0,1,.23,1.38,5.15,5.15,0,0,1-.69,1.33c-.87,1-2.7,2.95-5.5,6s-5.66,6-8.57,9.13l-5.42,5.72c-1.64,1.7-2.88,3-3.75,3.89a58.72,58.72,0,0,0-2.14,6.15A6.58,6.58,0,0,0,94.5,99a12.29,12.29,0,0,0,.53,1.12c.31.6.51.85.61.76,1-.94,2.45-2.43,4.28-4.49s3.88-4.3,6-6.67q4.89-5.49,9.4-10.71t6-6.46c.11-.09.23-.19.39-.3a2.19,2.19,0,0,1,.38-.21l.61-.2.92-.3a.18.18,0,0,1,.23.1v.17A.4.4,0,0,1,123.7,72.05ZM98.55,85.51v.09l.07,0c2.09-2.42,4.79-5.59,8.11-9.55s6.24-7.81,8.79-11.42a.37.37,0,0,0,.08-.19v-.09a.2.2,0,0,0-.16,0l-.07,0A69.89,69.89,0,0,0,105.2,75.14,66,66,0,0,0,98.55,85.51Z"/><path d="M116.06,79.49q1.22-1.77,2.82-4.17c1.08-1.54,2.17-3.21,3.29-5q3.21-4.89,6.12-9.76A43.68,43.68,0,0,0,132.11,53a4.57,4.57,0,0,1,2-2.52,5.58,5.58,0,0,1,1.22-.57,3.65,3.65,0,0,1,1.53-.16c1,.09,2,.14,3.14.17a3.39,3.39,0,0,1,2.37.93,1.4,1.4,0,0,1,.3,1.17,4,4,0,0,1-.69,1.84c-1.32,2.24-2,3.83-2.06,4.75a2.26,2.26,0,0,0,.76,2,5,5,0,0,0,1.15.64,13.24,13.24,0,0,1,3.06,2.38c.35.56.2,1.83-.46,3.8-.26.82-.64,1.85-1.15,3.09L141.21,75a55.78,55.78,0,0,0-3.67,8.71c-.36,1.31-.38,2-.08,2a.92.92,0,0,0,.61-.38c.26-.2.44-.34.54-.43q1.3-1.55,3.13-3.86c1.23-1.54,2.47-3.2,3.75-5q3.67-5,7.11-9.64a56.85,56.85,0,0,1,4.66-5.84,3.6,3.6,0,0,0,.39-.29,1.35,1.35,0,0,1,.38-.21l.08,0,.61-.2a.18.18,0,0,1,.23.09V60a.37.37,0,0,1-.08.19,42.59,42.59,0,0,0-3.29,4.7c-1.43,2.22-3,4.67-4.59,7.35q-3.74,6.15-7.41,12.3a70.06,70.06,0,0,1-5.43,8.12,4.88,4.88,0,0,1-.61.46l-.23.08a1.22,1.22,0,0,1-.46.06,11.51,11.51,0,0,1-5.2-.62,5.72,5.72,0,0,1-2.21-1.73,4.48,4.48,0,0,1-.62-1,3.54,3.54,0,0,0-.53-.76c-.21-.22.13-1.63,1-4.25s2.4-6.22,4.44-10.75q.84-1.82,2.29-4.85A16.69,16.69,0,0,0,137.62,65a.88.88,0,0,0-.92-1.14,5.53,5.53,0,0,1-2.3-.44,2.94,2.94,0,0,1-1-.78,3.08,3.08,0,0,1-.61-1.58,3.33,3.33,0,0,1,.08-1.22c.05-.47,0-.54-.16-.2l-.68.9c-.46.61-2,2.76-4.67,6.47-1.17,1.58-2.57,3.51-4.2,5.81l-6,8.29h-.31a1.48,1.48,0,0,1-.69-.55.54.54,0,0,1-.23-.44,1.13,1.13,0,0,1,.08-.28Z"/><path d="M176.15,55l-.38.45c-.26.36-1.07,1.48-2.45,3.36-.56.8-1.3,1.78-2.22,3s-1.91,2.59-3.13,4.28l-6.35,8.79q-3.83,5.2-9.17,12.67a2.21,2.21,0,0,1-.69.65,2.56,2.56,0,0,1-.69.4l-.15,0q-3.67.9-5.28-.26a6.15,6.15,0,0,1-2.21-2.22,2.57,2.57,0,0,1-.16-.88V85.1a3.88,3.88,0,0,1,.38-1.23l.31-.61c.2-.41.92-1.81,2.14-4.2L148,75.29c.77-1.49,1.68-3.32,2.76-5.48q2.21-4.45,5.58-11t8-15.65a13.2,13.2,0,0,0,.77-1.68,2.18,2.18,0,0,0,.08-1l2.44.25c1.58.12,2.7,1.35,3.37,3.66a2.27,2.27,0,0,1-.16,1.4,10.9,10.9,0,0,1-.46,1.07l-.22.49c-.16.33-.72,1.43-1.69,3.3l-1.53,3q-.91,1.81-2.21,4.33-1.84,3.61-4.51,8.88T153.9,79.43c-.1.2-.08.33.08.4s.23,0,.38-.13l.76-1c.56-.69,2.48-3.1,5.74-7.2,1.37-1.8,3.08-4,5.12-6.46s4.48-5.62,7.34-9.14a2.64,2.64,0,0,1,.76-.83,4,4,0,0,1,1-.47l.23-.07.53-.17c.15-.1.28-.05.39.14v.17A1,1,0,0,1,176.15,55Zm7.49-32.62c-.82,1.41-1.78,3.09-2.9,5a26.29,26.29,0,0,1-4.06,5.32,4.29,4.29,0,0,1-1.37.92,2,2,0,0,1-.38.2,2.48,2.48,0,0,1-1.08.07,11.43,11.43,0,0,1-1.75-.22,8.56,8.56,0,0,1-2.14-.86c-.21,0-.31-.22-.31-.5a1.25,1.25,0,0,1,.23-.74,14.88,14.88,0,0,0,2-2.54c.61-1,1.22-2.11,1.83-3.25.92-1.68,1.68-3.2,2.3-4.55l.84-2,2.37-.61a4.86,4.86,0,0,1,4.28,1.1,1.26,1.26,0,0,1,.53,1.11v.25A2.62,2.62,0,0,1,183.64,22.39Z"/><path d="M194.73,66.52c-.11.2-.08.33.07.4s.23,0,.39-.11c.25-.32.51-.64.76-1,.51-.64,2.34-2.88,5.51-6.68,1.32-1.63,3-3.62,5-6s4.29-5.21,7-8.47a3.44,3.44,0,0,1,.84-.69,3.15,3.15,0,0,1,.92-.38l.15,0,1.07-.32a.28.28,0,0,1,.38.24.66.66,0,0,1-.07.52l-.39.42-2.37,3c-.61.75-1.35,1.67-2.21,2.77s-1.92,2.51-3.14,4.1c-1.73,2.21-3.85,4.94-6.34,8.22s-5.58,7.29-9.1,12a4.05,4.05,0,0,1-1.61,1c-2.39.47-4.15.33-5.27-.46A6.65,6.65,0,0,1,184.18,73a1.66,1.66,0,0,1-.16-1,2.63,2.63,0,0,1,.31-1.18l.38-.7q.3-.68,2.45-4.67.92-1.77,2.22-4.25l3.21-6c-5.31,7-9.76,12.73-13.38,17.2l-7.42,9a3,3,0,0,1-1.07.85l-.31.09a2,2,0,0,1-.84.11A9.55,9.55,0,0,1,164.22,80a17.91,17.91,0,0,1-2.6-3.12,2.19,2.19,0,0,1-.23-1,3.48,3.48,0,0,1,.23-1.26,66.37,66.37,0,0,1,3.67-7.09q2.29-3.95,5.2-8.31,1.83-2.76,3.75-5.54c1.27-1.85,2.55-3.64,3.82-5.37q3.51-4.84,6.42-8.62l4.13-5.38a4.05,4.05,0,0,1,.92-.76,2.45,2.45,0,0,1,1-.36,6.81,6.81,0,0,1,2.75.41,11,11,0,0,1,2.37,1.19,11.75,11.75,0,0,1,3.29,3.12,15.84,15.84,0,0,1,1.53,2.27c.1-.2.21-.39.31-.58q.3-.59,2.14-3.9c.51-1,1.14-2.15,1.91-3.57s1.6-3.07,2.67-5q2.3-4.23,5.59-10.22T221,2.57A15.72,15.72,0,0,0,221.64,1a1.65,1.65,0,0,0,.15-1l2.37.53c1.63.29,2.75,1.63,3.37,4a1.51,1.51,0,0,1,.07.48,2.58,2.58,0,0,1-.15.85,4.3,4.3,0,0,1-.54,1l-6.49,11.73q-4,7.31-8.34,15.39-4.28,7.83-8.18,15.18t-6.34,12c-.87,1.63-1.56,2.94-2.07,3.92ZM172.56,73.7c.1-.09,1.07-1.27,2.9-3.52s4-5,6.42-8.11q4.51-5.55,9-11.08c2.95-3.69,4.92-6.09,5.89-7.24a.77.77,0,0,0,.22-.57V43.1a.59.59,0,0,0-.15-.46,4.17,4.17,0,0,0-1-.73,3.17,3.17,0,0,0-1.68-.37l-.16,0-.15,0a.62.62,0,0,0-.31.25c-.35.38-1,1.12-2,2.23s-2.12,2.5-3.44,4.16q-3.75,4.68-8.34,11.28a93.16,93.16,0,0,0-7.8,13.34,1.25,1.25,0,0,0-.07.45v.08a.7.7,0,0,0,.23.43.22.22,0,0,0,.23,0l.07,0A.43.43,0,0,0,172.56,73.7Z"/><path d="M253.37,37.65l-.77.74c-.51.5-2.24,2.21-5.2,5.23q-1.83,2-4.58,4.84c-1.89,1.93-4.11,4.25-6.66,7q-4.89,8.69-9.48,17C223.57,78,221.13,82.55,219.34,86a22.08,22.08,0,0,1-2.44,3.57,9.33,9.33,0,0,1-4.82,2.93l-.38.1a6.2,6.2,0,0,1-4.82-.5,17.41,17.41,0,0,1-4-2.84,5,5,0,0,1-1.53-3.75v-.67A7.08,7.08,0,0,1,203.82,80L207,77.29c2-1.86,4.36-4,7-6.24,1.78-1.59,3.56-3.15,5.35-4.66s3.26-2.8,4.58-3.91l.39-.74c.3-.51,1.27-2.24,2.9-5.16.66-1.24,1.51-2.75,2.53-4.55s2.24-4,3.67-6.55C228,51.88,223.57,57.19,220,61.26s-6.15,6.88-7.42,8.3a2.64,2.64,0,0,1-1.07.76,2,2,0,0,1-1.15.12,9.1,9.1,0,0,1-5.27-2.64,14.52,14.52,0,0,1-2.6-3.23,1.63,1.63,0,0,1-.31-1,2.91,2.91,0,0,1,.31-1.25A46.72,46.72,0,0,1,206,55.63q2.37-3.85,5.2-7.87,3.36-4.89,7-9.61t6.5-8.09q1.53-1.87,2.75-3.27c.77-.92,1.38-1.64,1.84-2.17a1.93,1.93,0,0,1,.92-.66,2.09,2.09,0,0,1,1-.26,6.52,6.52,0,0,1,2.68.68,10.59,10.59,0,0,1,2.37,1.34,16.3,16.3,0,0,1,3.28,3.44,22.5,22.5,0,0,1,1.61,2.39l.54-1c.4-.66,1.73-3,4-6.9.41-.76.66-1.26.77-1.49a2.68,2.68,0,0,0,.15-1l2.37.61q2.37.72,3.36,4.23a2,2,0,0,1-.15,1.33c-.15.34-.31.69-.46,1q-1.83,3.15-5.12,8.75t-7.26,12.6l.53-.58,3.44-3.66c.82-.88,1.84-2,3.06-3.22s2.68-2.85,4.36-4.58a2.59,2.59,0,0,1,.46-.3l.45,0,.62-.07.91-.1a.22.22,0,0,1,.23.14v.09A.37.37,0,0,1,253.37,37.65ZM219.57,70.3l-.46.44c-.25.23-1.22,1.14-2.9,2.75-.71.67-1.61,1.49-2.68,2.47s-2.34,2.19-3.82,3.62a2.82,2.82,0,0,0-1,2v.17a1.61,1.61,0,0,0,.76,1.47l.31.25.3.09a1.17,1.17,0,0,0,1.07.23,3.07,3.07,0,0,0,.54-.22,3.11,3.11,0,0,0,1.45-1.44c.33-.61.66-1.22,1-1.83q1-1.81,2.21-4.1c.56-1.08,1.12-2.12,1.68-3.14Zm-6.27-8.08c.11-.13,1.07-1.25,2.91-3.34s4-4.62,6.42-7.41q4.51-5.19,9-10.22c2.95-3.3,4.92-5.43,5.88-6.47a.94.94,0,0,0,.23-.62v-.08a.84.84,0,0,0-.15-.47,10.29,10.29,0,0,0-1.07-.82,4.28,4.28,0,0,0-1.61-.55l-.15,0-.15,0-.31.22c-.66.67-2.29,2.38-4.89,5.18a118.24,118.24,0,0,0-8.26,10.13q-2.29,3.15-4.51,6.57a73.78,73.78,0,0,0-3.9,6.9,1.64,1.64,0,0,0-.07.44v.08a.73.73,0,0,0,.23.44.26.26,0,0,0,.22,0l.08,0Z"/><path d="M277.75,36.39c-.86.66-2.26,1.83-4.2,3.56s-4,3.59-6.35,5.78-4.53,4.34-6.88,6.61l-6.27,6.1c-1,.92-1.83,1.76-2.6,2.51a23.22,23.22,0,0,1-1.75,1.7,2.07,2.07,0,0,1-.69.42l-.23,0a2,2,0,0,1-.54,0,14,14,0,0,1-6.11-3,27.62,27.62,0,0,1-3.21-3.2,1.5,1.5,0,0,1-.31-.69V56a1.86,1.86,0,0,1,.08-.51,53.29,53.29,0,0,1,3.82-10.08,65.64,65.64,0,0,1,5-8.59,58.54,58.54,0,0,1,9.79-11.57c3.21-2.85,5.32-4.59,6.34-5.3a.91.91,0,0,1,.54-.2.5.5,0,0,1,.22-.09.56.56,0,0,1,.31.06,12.85,12.85,0,0,1,6.19,2.61,29.18,29.18,0,0,1,3.9,3.43,1.11,1.11,0,0,1,.23,1.39,3,3,0,0,1-.69,1.07c-.86.66-2.7,2-5.5,4.15s-5.66,4.35-8.56,6.65q-2.91,2.28-5.43,4.35l-3.75,3a44.82,44.82,0,0,0-2.14,5.52,5.76,5.76,0,0,0-.38,3.42c0,.16.23.55.53,1.17s.51.89.62.83c1-.73,2.44-1.92,4.28-3.55l6-5.16c3.26-2.79,6.4-5.43,9.4-8a71.12,71.12,0,0,1,6-4.49,2.9,2.9,0,0,1,.38-.16,1.08,1.08,0,0,1,.38-.09h1.53a.25.25,0,0,1,.23.17v.16A.24.24,0,0,1,277.75,36.39ZM252.6,43.07v.08h.08c2.09-1.93,4.79-4.45,8.1-7.49s6.24-6,8.79-8.75a.29.29,0,0,0,.08-.17v-.08a.22.22,0,0,0-.15-.08h-.08a43.31,43.31,0,0,0-10.17,7.89A45.25,45.25,0,0,0,252.6,43.07Z"/><text class="cls-1" transform="translate(111.33 139.34) scale(1.32 1)">Rooms</text></g></g></svg>